#!OML:ASF F:\VICON\USERDATA\INSTALL\rory3\rory3.ASF
:FULLY-SPECIFIED
:DEGREES
1974
root 1.30905 15.4704 -8.14882 -208.893 218.937 -177.987
lowerback 30.993 1.85112 -1.33855
upperback 14.7081 1.26835 -0.742597
thorax -0.301931 0.299286 -0.4292
lowerneck -7.61704 -1.7491 -7.48735
upperneck -4.73456 -1.71504 7.29037
head -0.0376983 -0.739858 3.66473
rclavicle -5.73991e-014 2.90226e-014
rhumerus -10.0324 26.5562 -67.7969
rradius 84.4137
rwrist 13.7509
rhand -48.9987 13.4727
rfingers 7.12502
rthumb -21.6278 -15.3395
lclavicle -5.73991e-014 2.90226e-014
lhumerus 5.00932 -39.0641 59.9883
lradius 73.9769
lwrist 1.29432
lhand -32.7137 17.1119
lfingers 7.12502
lthumb -5.93784 47.0087
rfemur -78.6133 -55.1433 17.8802
rtibia 147.554
rfoot -1.60476 6.2857
rtoes 12.0261
lfemur -70.8362 43.1573 -15.7693
ltibia 143.141
lfoot -6.37622 -13.2771
ltoes 6.36369
1975
root 1.31028 15.4705 -8.1475 -208.948 218.929 -177.881
lowerback 30.9695 1.88406 -1.40607
upperback 14.6932 1.29271 -0.764818
thorax -0.309763 0.309498 -0.422095
lowerneck -7.55763 -1.74657 -7.41651
upperneck -4.77257 -1.71991 7.24385
head -0.0613985 -0.744511 3.63465
rclavicle 3.72721e-014 -3.598e-014
rhumerus -10.0967 26.5448 -67.786
rradius 84.4357
rwrist 13.6574
rhand -48.728 13.241
rfingers 7.12502
rthumb -21.3678 -15.6008
lclavicle 3.72721e-014 -3.598e-014
lhumerus 5.0504 -39.1215 60.0195
lradius 73.8935
lwrist 1.35543
lhand -32.5938 16.9713
lfingers 7.12502
lthumb -5.82201 46.8713
rfemur -78.593 -55.2879 17.5788
rtibia 147.628
rfoot -1.63547 6.46799
rtoes 12.4019
lfemur -70.8827 43.047 -15.9091
ltibia 143.117
lfoot -6.44096 -13.1422
ltoes 6.60243
1976
root 1.31232 15.4729 -8.1459 -209.039 218.928 -177.761
lowerback 30.9631 1.9058 -1.47379
upperback 14.6896 1.30062 -0.800206
thorax -0.311469 0.311385 -0.424701
lowerneck -7.53434 -1.72069 -7.4094
upperneck -4.77195 -1.68657 7.29041
head -0.0673577 -0.728111 3.65073
rclavicle 1.12015e-013 3.37934e-015
rhumerus -10.1213 26.5452 -67.8114
rradius 84.4056
rwrist 13.6483
rhand -48.7138 13.37
rfingers 7.12502
rthumb -21.3541 -15.4734
lclavicle 1.12015e-013 3.37934e-015
lhumerus 5.04439 -39.1328 60.0526
lradius 73.8261
lwrist 1.30941
lhand -32.5537 16.9567
lfingers 7.12502
lthumb -5.78337 46.8578
rfemur -78.4403 -55.3977 17.2654
rtibia 147.65
rfoot -1.72588 6.58602
rtoes 12.4377
lfemur -70.764 42.9764 -16.0113
ltibia 143.085
lfoot -6.55935 -13.0458
ltoes 7.04406
1977
root 1.31436 15.4745 -8.14655 -209.101 218.915 -177.672
lowerback 30.9742 1.91948 -1.55419
upperback 14.6867 1.29485 -0.819737
thorax -0.320735 0.304829 -0.39877
lowerneck -7.5414 -1.6875 -7.47768
upperneck -4.74552 -1.63608 7.39724
head -0.0594795 -0.701223 3.70322
rclavicle 3.08116e-015 -1.17283e-014
rhumerus -10.1017 26.5494 -67.8356
rradius 84.3357
rwrist 13.6923
rhand -48.4491 12.6756
rfingers 7.12502
rthumb -21.0999 -16.1964
lclavicle 3.08116e-015 -1.17283e-014
lhumerus 5.05326 -39.124 60.0554
lradius 73.8033
lwrist 1.17658
lhand -32.53 17.2662
lfingers 7.12502
lthumb -5.76046 47.1679
rfemur -78.4215 -55.4662 17.1534
rtibia 147.646
rfoot -1.77369 6.6099
rtoes 12.2065
lfemur -70.6999 42.8895 -16.1188
ltibia 143.065
lfoot -6.67265 -12.9176
ltoes 7.14189
1978
root 1.31581 15.4752 -8.14599 -209.191 218.933 -177.57
lowerback 30.971 1.95429 -1.6448
upperback 14.7099 1.31251 -0.830139
thorax -0.293937 0.308134 -0.363546
lowerneck -7.59217 -1.66732 -7.44688
upperneck -4.71027 -1.60963 7.37999
head -0.0418623 -0.687656 3.69155
rclavicle -2.51463e-014 3.67752e-014
rhumerus -10.074 26.5358 -67.8213
rradius 84.3026
rwrist 13.7163
rhand -48.22 12.2377
rfingers 7.12502
rthumb -20.8798 -16.6587
lclavicle -2.51463e-014 3.67752e-014
lhumerus 5.13113 -39.1301 60.0014
lradius 73.7868
lwrist 1.12428
lhand -32.5127 17.4806
lfingers 7.12502
lthumb -5.74379 47.3828
rfemur -78.4202 -55.5537 17.0564
rtibia 147.648
rfoot -1.79044 6.69422
rtoes 11.9172
lfemur -70.5825 42.8676 -16.1665
ltibia 143.034
lfoot -6.75908 -12.8139
ltoes 7.20716
